<?xml version="1.0" encoding="UTF-8"?>
<svg id="Layer_1" data-name="Layer 1" xmlns="http://www.w3.org/2000/svg" viewBox="0 0 1080 1080">
  <defs>
    <style>
      .cls-1 {
        fill: #c49a6c;
      }
    </style>
  </defs>
  <g id="nlUBp4.tif">
    <path class="cls-1" d="M297.01,244.13c9.82-82.87,73.82-154.27,155.99-168.94-90.19,70.26-130.29,210.63-54.13,306.27,17.09,21.46,56.43,42.17,59.36,71.13,3.65,35.92-54.76,91.22-49.92,116.83,4.74,25.09,35.22,8.94,47.16,10.07,7.19.68,13.02,9.09,15.84,9.15,16.19.32,44.59-75.26-2.45-58.34-13.61,4.9-16.14,17.44-26.2,23.18.87-30.51,26.57-79.54,53.45-94.66,21.26-11.96,48.58-12.5,67.79-31l34.64-35.48c-1.5,36.76-28.08,62.44-46.8,90.91,47.29,7.42,40.92,70.21,49.5,106.7,20.32-17.41,31.18-4.19,50.79-6.19,50.78-5.18-36.04-97.05-32.66-131.16,2.55-25.69,57.53-64.79,73.67-93.22,56.69-99.81,14.51-214.78-68.46-284.2,60.38,12.82,111.28,48.34,136.11,105.62,4.91,11.34,19.88,54,19.88,63.32v109.19c0,3.33-14.4,26.92-.07,28.56,32.19-65.93,19.81-128.31,11.94-196.47-.66-5.69-6-17.76,3.65-16.64,87.92,110.95,62.8,238.85-20.73,343.08,5.45,5.46,35.21-26.16,39.14-31.01,31.12-38.43,52.59-97.04,59.71-145.73,10.21,2.83,11.51,16.97,13.24,25.71,21.98,111.43-32.98,193.82-138.04,229.14-1.19,9.67,10.58,4.09,15.83,2.84,30.71-7.35,62.13-23.97,87.68-42.35,3.76-2.71,36.54-38.18,31.35-15.5-7.62,33.33-37.7,72.04-67.64,88.4-8.26,4.51-42.54,18.54-49.05,18.54h-80.59c-.98,7.65,14.04,7.93,19.65,8.91,38.61,6.73,76.85,1.22,115.52-1.14-36.24,42.1-85.28,68.06-141.54,53.16-16.53-4.37-29.6-15.46-45.62-19.29,20.9,34.75,61.42,42.11,98.77,44.12-36.02,25.59-78.76,39.01-119.51,54.62l-5.19-51.96c2.28,26.5-25.89,69.34-25.51,91.05.45,25.76,48.22,64.8,39.98,113.01-1.04,6.09-15.24,43.95-24.84,35.07l-36.43-72.75c1.91,38.2,42.51,109.47-23.45,109.47s-25.35-71.27-23.45-109.47l-22.71,36.99c-8.97,12.02-10.33,49.68-25.58,29.27-21.44-28.71-14.34-52.87-2.41-83.24,6.11-15.55,29.05-44.55,29.92-53.5,2.1-21.59-28.44-69.38-26.02-95.91l-5.19,51.96c-40.76-15.6-83.49-29.03-119.51-54.62,36.61-3.68,78.12-8.74,98.77-44.12-16.88,5.52-26.96,14.69-45.62,19.27-56.33,13.83-105.44-10.58-141.53-53.14,38.31,2.29,77.17,7.17,115.55,1.16,5.4-.85,20.67-1.42,19.62-8.94h-80.59c-4.18,0-50.46-17.89-56.44-21.55-24.42-14.94-53.92-57.68-60.25-85.39-5.01-21.9,41.11,22.17,46.98,25.87,21.85,13.77,46.78,25.93,72.05,31.98,5.24,1.26,17.01,6.83,15.83-2.84-104.59-37.43-152.8-107.66-139.76-220.46,1.17-10.13,3.79-30.03,14.96-34.39,10.78,69.33,40.99,139.68,98.79,181.98-12.85-29.18-35.84-54.45-49.27-83.27-44.36-95.23-35.86-183.2,31.15-265.08,4.15,23.43-6.66,46.76-8.02,69.97-2.9,49.52.73,97.52,21.06,143.15,14.33-1.64-.07-25.22-.07-28.56,0-33.42-3.75-77.55,0-109.19Z"/>
  </g>
</svg>